<svg xmlns="http://www.w3.org/2000/svg" xmlns:xlink="http://www.w3.org/1999/xlink" viewBox="0 0 176.79 122.36"><defs><style>.cls-1{fill:none;}.cls-2{fill:#f69532;stroke-width:0.21px;}.cls-2,.cls-4{stroke:#000;stroke-miterlimit:10;}.cls-3{fill:#fff;}.cls-4{fill:#7f7eff;stroke-width:0.25px;}.cls-5{clip-path:url(#clip-path);}</style><clipPath id="clip-path"><rect class="cls-1" x="11.09" y="0.13" width="93.44" height="64.15"/></clipPath></defs><title>2Fichier 30RVB</title><g id="Calque_2" data-name="Calque 2"><g id="Calque_1-2" data-name="Calque 1"><path class="cls-2" d="M11.15,66.62v48.86a2.37,2.37,0,0,0,2.37,2.37H25.46a2.33,2.33,0,0,1,1.59.62L30,121.1a4.46,4.46,0,0,0,3,1.16h8.65a4.46,4.46,0,0,0,3-1.16l2.9-2.63a2.33,2.33,0,0,1,1.59-.62l125.25.16a2.37,2.37,0,0,0,2.37-2.37v-49a2.37,2.37,0,0,0-2.37-2.37H13.52A2.37,2.37,0,0,0,11.15,66.62Z"/><path class="cls-3" d="M54.54,93a7,7,0,0,1,.87,3.45,6.9,6.9,0,0,1-1,3.73,6.69,6.69,0,0,1-2.87,2.5,10,10,0,0,1-4.34.89H36.25V78.74H47a8.68,8.68,0,0,1,3.85.83,6.34,6.34,0,0,1,2.62,2.37,6.72,6.72,0,0,1,.93,3.53,6.59,6.59,0,0,1-.6,2.81,6.06,6.06,0,0,1-1.7,2.18A6.48,6.48,0,0,1,54.54,93ZM42.59,84.19v4H46a2.27,2.27,0,0,0,1.6-.52,1.85,1.85,0,0,0,.56-1.43,2,2,0,0,0-.56-1.49,2.27,2.27,0,0,0-1.6-.53Zm4,13.63a2.15,2.15,0,0,0,1.61-.6,2.57,2.57,0,0,0,0-3.25,2.12,2.12,0,0,0-1.61-.61h-4v4.46Z"/><path class="cls-3" d="M65.39,78.74V97.33H75.55v6.2H58.73V78.74Z"/><path class="cls-3" d="M83.7,102.34A11.89,11.89,0,0,1,79,97.75a13.88,13.88,0,0,1,0-13.24,11.8,11.8,0,0,1,4.66-4.58,14.61,14.61,0,0,1,13.49,0,11.84,11.84,0,0,1,4.65,4.58,13.88,13.88,0,0,1,0,13.24,11.93,11.93,0,0,1-4.65,4.59,14.61,14.61,0,0,1-13.49,0Zm10-5.56a5.74,5.74,0,0,0,2.23-2.3,7.39,7.39,0,0,0,0-6.69,5.74,5.74,0,0,0-2.23-2.3,6.53,6.53,0,0,0-6.41,0A5.9,5.9,0,0,0,85,87.79a7.23,7.23,0,0,0,0,6.69,5.9,5.9,0,0,0,2.24,2.3,6.34,6.34,0,0,0,3.21.83A6.28,6.28,0,0,0,93.66,96.78Z"/><path class="cls-3" d="M112.06,102.34a11.81,11.81,0,0,1-4.55-4.59,14.11,14.11,0,0,1,0-13.24,11.72,11.72,0,0,1,4.55-4.58,13.07,13.07,0,0,1,6.58-1.65,13.4,13.4,0,0,1,5.88,1.27,11.85,11.85,0,0,1,4.41,3.62,12.27,12.27,0,0,1,2.28,5.41h-6.72a5.51,5.51,0,0,0-2.15-2.86,6.08,6.08,0,0,0-3.55-1.07,6,6,0,0,0-3.14.84,5.75,5.75,0,0,0-2.18,2.3,7.65,7.65,0,0,0,0,6.69,5.75,5.75,0,0,0,2.18,2.3,6.06,6.06,0,0,0,3.14.83,6.14,6.14,0,0,0,3.66-1.13,5.62,5.62,0,0,0,2.14-3h6.69A12.61,12.61,0,0,1,129,99a12,12,0,0,1-4.43,3.7,13.42,13.42,0,0,1-6,1.31A13.07,13.07,0,0,1,112.06,102.34Z"/><path class="cls-3" d="M136.12,101.7a8.09,8.09,0,0,1-2.82-6.21h6.55c.14,1.67,1.28,2.51,3.4,2.51a4.16,4.16,0,0,0,2.23-.51,1.55,1.55,0,0,0,.82-1.36,1.73,1.73,0,0,0-1-1.53,10.32,10.32,0,0,0-3.27-.92,13.24,13.24,0,0,1-6.27-2.37,6.12,6.12,0,0,1-2.19-5.1,7.31,7.31,0,0,1,1.2-4.21,7.59,7.59,0,0,1,3.35-2.71,12,12,0,0,1,4.9-.94,10,10,0,0,1,6.66,2.16,8,8,0,0,1,2.79,5.88h-6.44a2.47,2.47,0,0,0-1-1.67,3.58,3.58,0,0,0-2.12-.56,3.76,3.76,0,0,0-2.09.49,1.56,1.56,0,0,0-.74,1.38,1.5,1.5,0,0,0,.9,1.37,11.86,11.86,0,0,0,3.24.86,13.16,13.16,0,0,1,6.41,2.43A6.32,6.32,0,0,1,153,95.91a7.4,7.4,0,0,1-1.24,4.32,7.49,7.49,0,0,1-3.45,2.73,13,13,0,0,1-5,.92A10.86,10.86,0,0,1,136.12,101.7Z"/><path class="cls-4" d="M.12,3V61.43A2.84,2.84,0,0,0,3,64.27H17.25a2.85,2.85,0,0,1,1.91.74l3.47,3.16a5.3,5.3,0,0,0,3.57,1.38H36.56a5.29,5.29,0,0,0,3.57-1.38L43.6,65a2.87,2.87,0,0,1,1.91-.74h65.15a2.84,2.84,0,0,0,2.84-2.84v-58A2.84,2.84,0,0,0,110.66.59L3,.12A2.85,2.85,0,0,0,.12,3Z"/><g class="cls-5"><path class="cls-3" d="M31,41.27c-2.89.16-5.13-1.43-5.36-4.59-.35-4.86,4.47-9,13.42-9.41l1.2-4.36c-4.71.39-7-1.63-7-4.61s1.88-6.25,5.41-6.51c2.6-.19,4.08,2,3.36,5l5.19-.38c1.33-5.13-2.12-9.57-8.35-9.12-6.51.47-11,5.54-10.67,11.15a7.94,7.94,0,0,0,3.43,6.11C25.28,26,19.71,30.93,20.2,37.69c.43,6,5,8.89,10.86,8.45A14.3,14.3,0,0,0,44,36l-4.47-2c-1.37,4-4.76,7-8.59,7.22"/><path class="cls-3" d="M63.73,19.31c2.21-.16,4.14-2.79,4-5.1a2.67,2.67,0,0,0-2.77-2.56l-.19,0c-2.26.16-4.15,2.57-4,5a2.62,2.62,0,0,0,2.62,2.61l.32,0"/><path class="cls-3" d="M92.26,25.24a5.16,5.16,0,0,1-5.72,2.9l0-.42c-.28-3.9-3-7.57-7.61-7.23C72.62,20.94,68.47,26.82,68,33.3c-1.77,3.13-3.65,5.17-5.07,5.28-2.84.2-.16-7.4,2.49-16.59l-5.47.4c-1,3.28-1.91,6.49-2.58,9.39-2.08,4.44-4.54,7.53-6.28,7.65-1.58.12-1.49-1.53,0-7.41,1.14-4.58,3.36-12.73,6.1-21.71l-5.58.4c-2.11,7.45-4.48,15.57-5.8,20.87C43.65,40.94,44.63,45,49.79,44.63c2.54-.2,4.86-2.23,6.79-4.75.37,2.61,1.82,4.13,5.05,3.9,2.66-.19,5.12-2.43,7.1-5.19a6.8,6.8,0,0,0,7.07,4.17c5.53-.4,9.22-5,10.37-10.23,4,.34,7.76-2.48,8.76-4.76ZM76.18,37.83c-1.52.11-2.61-1-2.78-3.4-.28-3.84,2.1-9,5-9.24,1.63-.12,2.58,1.29,2.73,3.35.29,4-2.14,9.09-4.88,9.29"/><path class="cls-3" d="M21,57.11l-.66-3.92c.42-.07,41.59-6.95,74.54-5.8l-.14,4C62.15,50.22,21.36,57.05,21,57.12"/></g></g></g></svg>