<svg id="Calque_1" data-name="Calque 1" xmlns="http://www.w3.org/2000/svg" xmlns:xlink="http://www.w3.org/1999/xlink" viewBox="0 0 188.06 129.1"><defs><style>.cls-1{fill:none;}.cls-2{clip-path:url(#clip-path);}.cls-3{fill:#574f96;}.cls-4{fill:#55589f;}</style><clipPath id="clip-path"><rect class="cls-1" x="-0.78" width="188.06" height="129.1"/></clipPath></defs><title>Plan de travail 2ELIORVB</title><g class="cls-2"><path class="cls-3" d="M39.26,82.81c-5.8.32-10.33-2.88-10.79-9.24-.7-9.78,9-18.12,27-18.94l2.42-8.77c-9.49.79-14-3.28-14.13-9.28S47.51,24,54.63,23.48c5.22-.38,8.21,4,6.74,10.11l10.45-.76C74.51,22.52,67.56,13.57,55,14.48c-13.1.95-22.1,11.14-21.47,22.45.24,4.76,2.9,9.81,6.9,12.29C27.78,52.05,16.57,62,17.55,75.6c.87,12,10,17.89,21.85,17,13.1-.95,22.71-9.28,26.1-20.4l-9-3.94c-2.76,8-9.57,14-17.27,14.52"/><path class="cls-3" d="M105.16,38.61c4.45-.32,8.33-5.61,8-10.27a5.36,5.36,0,0,0-5.91-5.11c-4.56.33-8.36,5.18-8,10.16a5.27,5.27,0,0,0,5.92,5.22"/><path class="cls-4" d="M162.57,50.54a10.36,10.36,0,0,1-11.5,5.84l-.06-.85c-.57-7.84-6-15.22-15.33-14.55-12.63.92-21,12.74-21.89,25.78-3.57,6.31-7.35,10.42-10.2,10.63-5.72.41-.33-14.89,5-33.39l-11,.8c-2,6.61-3.86,13.08-5.2,18.91-4.23,8.93-9.15,15.15-12.67,15.4-3.17.23-3-3.08.1-14.92,2.31-9.22,6.77-25.62,12.28-43.7L80.9,21.3c-4.24,15-9,31.33-11.67,42-4.49,18.85-2.51,27,7.87,26.27,5.07-.37,9.78-4.44,13.66-9.58.75,5.27,3.68,8.33,10.18,7.86,5.34-.39,10.3-4.9,14.29-10.44,2.37,5.49,7.43,8.87,14.21,8.38,11.12-.81,18.56-10,20.88-20.58,8.14.69,15.62-5,17.63-9.58ZM130.22,75.89c-3.08.22-5.26-2.07-5.61-6.84-.56-7.73,4.22-18.2,10-18.61,3.28-.24,5.19,2.61,5.49,6.74.58,8.05-4.32,18.31-9.83,18.71"/><path class="cls-3" d="M19.09,114.69l-1.33-7.89c.82-.14,83.7-14,150-11.68l-.28,8c-65.5-2.3-147.6,11.44-148.42,11.58"/></g></svg>